<svg xmlns="http://www.w3.org/2000/svg" width="838" height="773" viewBox="0 0 838 773">
  <defs>
    <style>
      .cls-1 {
        fill: #faefe9;
      }

      .cls-12, .cls-15, .cls-2, .cls-24, .cls-26, .cls-3 {
        fill: none;
      }

      .cls-2, .cls-26, .cls-3 {
        stroke: #000;
      }

      .cls-12, .cls-15, .cls-2, .cls-24, .cls-26 {
        stroke-miterlimit: 10;
      }

      .cls-4 {
        fill: #ab8de5;
      }

      .cls-5 {
        fill: #73e5e2;
      }

      .cls-6 {
        fill: #50b89d;
      }

      .cls-7 {
        fill: #1f161e;
      }

      .cls-8 {
        fill: #78e5e1;
      }

      .cls-9 {
        fill: #55b79d;
      }

      .cls-10 {
        fill: #f8cdba;
      }

      .cls-11 {
        fill: #fa9e9f;
      }

      .cls-12 {
        stroke: #1f161e;
      }

      .cls-12, .cls-24 {
        stroke-linecap: round;
      }

      .cls-13 {
        fill: #969696;
      }

      .cls-14 {
        fill: #d8d8d8;
      }

      .cls-15 {
        stroke: #e43f5a;
        stroke-width: 9px;
        opacity: 0.6;
      }

      .cls-16 {
        fill: #e43f5a;
      }

      .cls-17 {
        fill: #1f171e;
      }

      .cls-18 {
        fill: #fff;
      }

      .cls-19 {
        fill: #fbdc8e;
      }

      .cls-20 {
        fill: #888;
      }

      .cls-21 {
        fill: #f8e7c1;
      }

      .cls-22 {
        fill: #7ce5e0;
      }

      .cls-23 {
        fill: #ab91e0;
      }

      .cls-24 {
        stroke: #fff;
        stroke-width: 12px;
      }

      .cls-25 {
        fill: #fadb93;
        opacity: 0.57;
      }

      .cls-26 {
        stroke-width: 0.41px;
      }
    </style>
  </defs>
  <g id="Group_1" data-name="Group 1" transform="translate(-47 -287)">
    <g id="Layer_2" data-name="Layer 2" transform="translate(112 287)">
      <g id="Background">
        <circle id="Ellipse_21" data-name="Ellipse 21" class="cls-1" cx="386.5" cy="386.5" r="386.5"/>
      </g>
    </g>
    <g id="Layer_2-2" data-name="Layer 2" transform="translate(75.5 365.5)">
      <g id="Middle_ground" data-name="Middle ground">
        <rect id="Rectangle_24" data-name="Rectangle 24" class="cls-2" width="529" height="348" transform="translate(0.5 0.5)"/>
        <line id="Line_1" data-name="Line 1" class="cls-2" x2="529" transform="translate(0.5 19)"/>
        <path id="Path_30" data-name="Path 30" class="cls-3" d="M243,0" transform="translate(228.5 112)"/>
        <path id="Path_31" data-name="Path 31" class="cls-3" d="M243,0" transform="translate(228.5 136)"/>
        <circle id="Ellipse_14" data-name="Ellipse 14" class="cls-4" cx="4.5" cy="4.5" r="4.5" transform="translate(7.5 5.5)"/>
        <circle id="Ellipse_15" data-name="Ellipse 15" class="cls-5" cx="4.5" cy="4.5" r="4.5" transform="translate(23 5.5)"/>
        <circle id="Ellipse_16" data-name="Ellipse 16" class="cls-6" cx="4.5" cy="4.5" r="4.5" transform="translate(38.5 5.5)"/>
      </g>
    </g>
    <g id="Layer_2-3" data-name="Layer 2" transform="translate(100 583)">
      <g id="Layer_2-4" data-name="Layer 2">
        <path id="Path_4" data-name="Path 4" class="cls-7" d="M237.87,406.14c0,2.37-1.39,17.32,1.38,18.7s33.21,2.22,34.6.83,2.21-4.29,1-5.12-13-3.18-14.6-4.29-3.81-7-3-10.12"/>
        <path id="Path_5" data-name="Path 5" class="cls-8" d="M146.83,210.71,164,204.57c-.74-31.27-8.05-101.14-18.44-111.53-2.43-2.44-50.69-6.68-59.31-6.68-51.38,0-66.61,5.87-70.49,9.74C3.75,108.09,0,163.71,0,183.18s55,29.56,55,29.56l64.47,4.44s14.15,1.45,26.38,2.17C146.11,215.6,146.83,210.71,146.83,210.71Z"/>
        <path id="Path_6" data-name="Path 6" class="cls-7" d="M197.9,228.84c4.69-1.39,51.33-9,61.48,1s42.15,153.37,42.15,156.67H275.78L241,311.74"/>
        <path id="Path_7" data-name="Path 7" class="cls-9" d="M28.09,216.09c-1.17,5.85-8.2,12.13-8.2,44,0,44.08,36.09,45,49.06,45,40.37,0,105.71-12,110.12-14.19,2.93,4.89,56.86,115,57.1,117.45H261S245.61,243.71,217.85,225C208.83,219,48.79,212.53,28.09,216.09Z"/>
        <path id="Path_8" data-name="Path 8" class="cls-10" d="M173.49,183.87c-6.53,0-11.9,1.55-26.66,4.45l-.78,28.24c14-5.64,17.26-13.48,21.32-13.48,10.14,0,15.44,5.23,21.43,5.23,4.18,0,11.69-3.28,11.69-7.74C200.49,191.23,181.56,183.87,173.49,183.87Z"/>
        <path id="Path_9" data-name="Path 9" class="cls-7" d="M277.24,384.53c0,2.38-1.39,17.32,1.38,18.71s33.21,2.21,34.6.83,2.21-4.29,1-5.12-13-3.19-14.6-4.29-3.81-7-3-10.13"/>
        <path id="Path_10" data-name="Path 10" class="cls-10" d="M95.31,93c0,3.78-21.88,3.89-21.88,0V62.35H95.31Z"/>
        <path id="Path_11" data-name="Path 11" class="cls-7" d="M88.19,72.42c-2,0-14.76,5.63-14.76,8.78V64.61C76.61,64.61,88.19,72.42,88.19,72.42Z"/>
        <circle id="Ellipse_7" data-name="Ellipse 7" class="cls-10" cx="26.5" cy="26.5" r="26.5" transform="translate(65.91 20.77)"/>
        <path id="Path_12" data-name="Path 12" class="cls-7" d="M119.77,26.5c-3.28,5.21-10.14,7.6-17.57,7.6-6.33,0-15.55-1.84-22.12,1.9-3.54,2-7.61,6.55-8.44,15.66,0,1.56-1.76,7.61-1.76,9.56,0,1.34-1.5,2.21-4,2.21-1.29,0-3.83-2.1-3.83-5.29,0-3.69,1.46-5,1.46-8.13s-3.9-6.18-3.9-14.88c0-12.53,8-20.25,13.66-20.25,5.15,0,6.78,1.2,7.43,1.71C80.7,5.2,95.7,0,101.7,0c6.8,0,10,2.8,10,6.34,0,5.67-2.69,10.47-4.06,11.55a16.79,16.79,0,0,1,11.29-4.31c7.8,0,10.42,5.12,10.42,8.62,0,7.62-9.14,14.67-12.54,14.67a35.649,35.649,0,0,0-3-5.2"/>
        <circle id="Ellipse_8" data-name="Ellipse 8" class="cls-10" cx="5.65" cy="5.65" r="5.65" transform="translate(66.82 45.12)"/>
        <ellipse id="Ellipse_9" data-name="Ellipse 9" class="cls-11" cx="4.38" cy="2.28" rx="4.38" ry="2.28" transform="translate(114.79 47.57)"/>
        <ellipse id="Ellipse_10" data-name="Ellipse 10" class="cls-11" cx="4.38" cy="2.28" rx="4.38" ry="2.28" transform="translate(87.25 47.57)"/>
        <path id="Path_13" data-name="Path 13" class="cls-12" d="M108.48,45.12c.82,1.16,5,6.07.58,8.06"/>
        <path id="Path_14" data-name="Path 14" class="cls-12" d="M100.24,58.91c-1.32,0-3.35-1.63-4.43-3.11"/>
        <path id="Path_15" data-name="Path 15" class="cls-12" d="M135.18,130.08c2,4.26,11.65,45.25,11.65,58.24"/>
        <path id="Path_16" data-name="Path 16" class="cls-10" d="M0,179.87c0,46.09.42,59.46,18.93,59.46,42.64,0,107.1-35,118.59-35,10.14,0,15.44,5.23,21.44,5.23,4.17,0,11.69-3.29,11.69-7.74,0-9.34-18.93-16.7-27-16.7-18.16,0-90.68,17.51-92.44,17.51s-4.75-.77-4.75-3.75c0-5.41,3.53-17.9,4-19Z"/>
        <path id="Path_17" data-name="Path 17" class="cls-12" d="M61.1,139.67c-1.22,3.51-10.73,39.79-11.84,44.2"/>
      </g>
    </g>
    <g id="Layer_2-5" data-name="Layer 2" transform="translate(48.129 796)">
      <g id="Layer_2-6" data-name="Layer 2">
        <rect id="Rectangle_1" data-name="Rectangle 1" class="cls-13" width="10.24" height="211.6" rx="5.12" transform="matrix(-0.967, 0.254, -0.254, -0.967, 556.438, 212.96)"/>
        <rect id="Rectangle_2" data-name="Rectangle 2" class="cls-13" width="10.24" height="211.6" rx="5.12" transform="matrix(0.967, 0.254, -0.254, 0.967, 484.915, 8.318)"/>
        <rect id="Rectangle_3" data-name="Rectangle 3" class="cls-14" width="10.24" height="211.6" rx="5.12" transform="matrix(0.967, 0.254, -0.254, 0.967, 414.277, 8.327)"/>
        <rect id="Rectangle_4" data-name="Rectangle 4" class="cls-14" width="10.24" height="211.6" rx="5.12" transform="matrix(-0.967, 0.254, -0.254, -0.967, 484.908, 212.966)"/>
        <rect id="Rectangle_5" data-name="Rectangle 5" class="cls-13" width="10.257" height="211.959" rx="5.129" transform="translate(126.166 7.933) rotate(14.452)"/>
        <rect id="Rectangle_6" data-name="Rectangle 6" class="cls-13" width="10.257" height="211.959" rx="5.129" transform="translate(196.066 212.277) rotate(165.548)"/>
        <rect id="Rectangle_7" data-name="Rectangle 7" class="cls-14" width="504.23" height="15.15" rx="4.53" transform="translate(25.36)"/>
        <rect id="Rectangle_8" data-name="Rectangle 8" class="cls-14" width="10.24" height="211.6" rx="5.12" transform="matrix(0.967, 0.254, -0.254, 0.967, 52.672, 8.337)"/>
        <rect id="Rectangle_9" data-name="Rectangle 9" class="cls-14" width="10.24" height="211.6" rx="5.12" transform="matrix(-0.967, 0.254, -0.254, -0.967, 123.312, 212.968)"/>
      </g>
    </g>
    <g id="Layer_2-7" data-name="Layer 2" transform="translate(91 755)">
      <g id="Layer_1" data-name="Layer 1" transform="translate(9)">
        <rect id="Rectangle_20" data-name="Rectangle 20" class="cls-15" width="17.75" height="22.906" rx="8.875" transform="translate(0 7.831)"/>
        <path id="Path_18" data-name="Path 18" class="cls-16" d="M72.5,19V49.471a8.514,8.514,0,0,0,8.484,8.484h25.185a8.514,8.514,0,0,0,8.484-8.484V19Z" transform="translate(-64.212 -16.52)"/>
        <rect id="Rectangle_21" data-name="Rectangle 21" class="cls-17" width="50" height="2" rx="1" transform="translate(4)"/>
        <circle id="Ellipse_12" data-name="Ellipse 12" class="cls-18" cx="7.113" cy="7.113" r="7.113" transform="translate(22.253 14.846)"/>
      </g>
    </g>
    <g id="Layer_2-8" data-name="Layer 2" transform="translate(420.997 741.002)">
      <g id="Layer_2-9" data-name="Layer 2" transform="translate(93 63)">
        <path id="Path_19" data-name="Path 19" d="M88.06,44.37c19,3.61,15.61,117-20.86,110.14C32.76,148,64.88,40,88.06,44.37Z"/>
        <path id="Path_20" data-name="Path 20" class="cls-19" d="M4.64,58.43c15.12-8.55,78.41,71.09,49.46,87.46C26.75,161.36-13.77,68.84,4.64,58.43Z"/>
        <path id="Path_21" data-name="Path 21" class="cls-13" d="M81.69,209.32H43.51a6.25,6.25,0,0,1-6.21-5.56l-4.82-43.29a6.25,6.25,0,0,1,6.21-6.94H86.31a6.24,6.24,0,0,1,6.21,6.91l-4.61,43.29a6.26,6.26,0,0,1-6.22,5.59Z"/>
        <path id="Path_22" data-name="Path 22" class="cls-4" d="M98.79.23C113.26,4.44,102.17,92,74.46,83.91,48.3,76.3,81.18-4.89,98.79.23Z"/>
        <path id="Path_23" data-name="Path 23" class="cls-19" d="M122.65,69.87c10,8.63-30.68,74.56-49.9,58C54.6,112.3,110.44,59.37,122.65,69.87Z"/>
        <path id="Path_24" data-name="Path 24" class="cls-8" d="M62.7,9.34c21.66,0,41.49,138.29,0,138.29C23.52,147.63,36.33,9.34,62.7,9.34Z"/>
        <rect id="Rectangle_22" data-name="Rectangle 22" class="cls-14" width="84.3" height="15.48" rx="4.05" transform="translate(20.46 144.12)"/>
      </g>
    </g>
    <g id="Layer_2-10" data-name="Layer 2" transform="translate(222 734.001)">
      <g id="Layer_2-11" data-name="Layer 2">
        <path id="Path_25" data-name="Path 25" class="cls-20" d="M146.43,62.42H53.92L70.68,4.79A6.72,6.72,0,0,1,77.16,0h78.5a6.63,6.63,0,0,1,6.48,8.41Z"/>
        <circle id="Ellipse_13" data-name="Ellipse 13" class="cls-18" cx="5.66" cy="5.66" r="5.66" transform="translate(105.87 25.55)"/>
        <rect id="Rectangle_23" data-name="Rectangle 23" class="cls-20" width="64.91" height="4.05" transform="translate(0 58.38)"/>
      </g>
    </g>
    <g id="Layer_2-12" data-name="Layer 2" transform="translate(112 410)">
      <g id="Layer_1-2" data-name="Layer 1">
        <path id="Path_32" data-name="Path 32" class="cls-21" d="M34.97,126A34.97,34.97,0,0,1,0,91.03V34.97Z"/>
        <path id="Path_27" data-name="Path 27" class="cls-22" d="M133.933,0H11.9A11.925,11.925,0,0,0,0,11.9V114.217a11.925,11.925,0,0,0,11.9,11.9H133.933Z"/>
        <path id="Path_28" data-name="Path 28" class="cls-23" d="M.3,10.368Z" transform="translate(-0.198)"/>
        <line id="Line_6" data-name="Line 6" class="cls-24" x2="92.121" transform="translate(20.906 52.859)"/>
        <line id="Line_7" data-name="Line 7" class="cls-24" x2="92.121" transform="translate(20.906 68.156)"/>
        <line id="Line_8" data-name="Line 8" class="cls-24" x2="92.121" transform="translate(20.906 83.453)"/>
        <line id="Line_9" data-name="Line 9" class="cls-24" x2="92.121" transform="translate(20.906 98.75)"/>
        <circle id="Ellipse_17" data-name="Ellipse 17" class="cls-18" cx="9.348" cy="9.348" r="9.348" transform="translate(96.71 22.265)"/>
      </g>
    </g>
    <g id="Layer_2-13" data-name="Layer 2" transform="translate(329 462)">
      <g id="Layer_2-14" data-name="Layer 2" transform="translate(0)">
        <circle id="Ellipse_18" data-name="Ellipse 18" class="cls-25" cx="72.465" cy="72.465" r="72.465" transform="translate(27.07 10.702)"/>
        <circle id="Ellipse_19" data-name="Ellipse 19" class="cls-8" cx="72.465" cy="72.465" r="72.465" transform="translate(0 10.702)"/>
        <line id="Line_10" data-name="Line 10" class="cls-26" y1="83.167" transform="translate(72.465)"/>
        <line id="Line_11" data-name="Line 11" class="cls-26" y1="62.719" x2="62.719" transform="translate(72.465 20.448)"/>
        <line id="Line_12" data-name="Line 12" class="cls-26" x2="47.098" y2="63.442" transform="translate(72.465 83.167)"/>
        <circle id="Ellipse_20" data-name="Ellipse 20" class="cls-26" cx="72.465" cy="72.465" r="72.465" transform="translate(12.054 10.702)"/>
      </g>
    </g>
  </g>
</svg>
